<svg width="108" height="64" viewBox="0 0 108 64" fill="none" xmlns="http://www.w3.org/2000/svg">
<path fill-rule="evenodd" clip-rule="evenodd" d="M16.8235 49.2235C16.8235 48.5478 17.3713 48 18.047 48H18.526C18.9448 48 19.349 48.1544 19.6612 48.4337L33.0883 60.4475C35.6452 62.7352 38.9556 64 42.3865 64C44.7563 64 47.0871 63.396 49.1587 62.2452L50.2353 61.6471L50.4423 61.8196C52.1329 63.2285 54.264 64 56.4647 64H57.155C60.1453 64 62.9006 62.3788 64.3529 59.7647L64.8218 60.1398C66.0414 61.1155 67.5567 61.6471 69.1186 61.6471C70.8922 61.6471 72.5972 60.962 73.8777 59.7348L81.4776 52.4515C82.4472 51.5224 82.5704 50.0155 81.7647 48.9412H91.4005C91.5367 48.9412 91.647 49.0515 91.647 49.1877C91.647 51.9104 93.8542 54.1176 96.577 54.1176H107.176V11.2941H91.5539C88.9017 11.2941 86.3582 10.2405 84.4828 8.36518L79.0465 2.92893C77.1712 1.05357 74.6276 0 71.9755 0H35.5539C32.9017 0 30.3582 1.05357 28.4828 2.92893L23.0465 8.36519C21.1712 10.2406 18.6276 11.2941 15.9755 11.2941H0.823486V54.1176H11.9294C14.6323 54.1176 16.8235 51.9265 16.8235 49.2235ZM64.1208 20.4738C65.0287 21.3817 65.0287 22.8536 64.1208 23.7615L62 25.8824L79.8823 40.9412H91.647V19.2941H88.2597C85.6076 19.2941 83.064 18.2405 81.1887 16.3652L73.7647 8.94118H56.3529L43.8882 19.5173C42.1949 20.954 41.9853 23.4907 43.4197 25.1859C44.8479 26.8737 47.3701 27.0935 49.0687 25.678L58.306 17.9803C59.332 17.1253 60.8407 17.1937 61.7851 18.1381L64.1208 20.4738ZM45.5294 8.94118H34.7058L27.2818 16.3652C25.4065 18.2405 22.8629 19.2941 20.2108 19.2941H16.8235V40.9412H18.6993C21.114 40.9412 23.4298 41.9004 25.1372 43.6078L36.474 54.9446C37.7524 56.223 39.4862 56.9412 41.2941 56.9412C43.102 56.9412 44.8358 56.223 46.1141 54.9446L50.2353 50.8235L55.6874 56.2757C56.1135 56.7018 56.6914 56.9412 57.2941 56.9412C57.8967 56.9412 58.4746 56.7018 58.9008 56.2757L64.3529 50.8235L67.647 54.1176L75.1764 46.5882L57.7075 32.1018C56.6337 31.2114 55.0928 31.1624 53.9647 31.9829L53.5239 32.3034C48.9201 35.6516 42.5647 35.153 38.5394 31.1277C33.7103 26.2985 34.0935 18.3589 39.3654 14.0174L45.5294 8.94118ZM8.35327 49.4118C9.91266 49.4118 11.1768 48.1476 11.1768 46.5882C11.1768 45.0289 9.91266 43.7647 8.35327 43.7647C6.79387 43.7647 5.52974 45.0289 5.52974 46.5882C5.52974 48.1476 6.79387 49.4118 8.35327 49.4118ZM99.6474 49.4118C101.207 49.4118 102.471 48.1476 102.471 46.5882C102.471 45.0289 101.207 43.7647 99.6474 43.7647C98.088 43.7647 96.8239 45.0289 96.8239 46.5882C96.8239 48.1476 98.088 49.4118 99.6474 49.4118Z" fill="#A91D21"/>
</svg>
