<svg width="181" height="61" viewBox="0 0 181 61" fill="none" xmlns="http://www.w3.org/2000/svg">
<path d="M44.5243 1H1V45.1815H44.5243V1Z" fill="black"/>
<path d="M44.5243 1H1V45.1815H44.5243V1Z" stroke="#2C2C2C" stroke-width="0.5669" stroke-miterlimit="22.9256"/>
<mask id="mask0_216_965" style="mask-type:luminance" maskUnits="userSpaceOnUse" x="31" y="19" width="10" height="19">
<path d="M40.2929 19.5503H31.5273V37.3462H40.2929V19.5503Z" fill="white"/>
</mask>
<g mask="url(#mask0_216_965)">
<path d="M40.2929 19.5503H31.5273V37.3462H40.2929V19.5503Z" fill="url(#paint0_linear_216_965)"/>
</g>
<mask id="mask1_216_965" style="mask-type:luminance" maskUnits="userSpaceOnUse" x="5" y="19" width="9" height="19">
<path d="M13.9961 19.5503H5.23047V37.3462H13.9961V19.5503Z" fill="white"/>
</mask>
<g mask="url(#mask1_216_965)">
<path d="M13.9961 19.5503H5.23047V37.3462H13.9961V19.5503Z" fill="url(#paint1_linear_216_965)"/>
</g>
<mask id="mask2_216_965" style="mask-type:luminance" maskUnits="userSpaceOnUse" x="5" y="13" width="36" height="25">
<path d="M34.2326 13.3984L40.2928 19.5502L22.7616 37.3461L5.23047 19.5502L11.2907 13.3984L22.7616 25.0426L34.2326 13.3984Z" fill="white"/>
</mask>
<g mask="url(#mask2_216_965)">
<path d="M40.2928 13.3984H5.23047V37.3461H40.2928V13.3984Z" fill="url(#paint2_linear_216_965)"/>
</g>
<mask id="mask3_216_965" style="mask-type:luminance" maskUnits="userSpaceOnUse" x="13" y="8" width="19" height="10">
<path d="M31.7567 8.83643L22.7651 17.9638L13.7734 8.83643H31.7567Z" fill="white"/>
</mask>
<g mask="url(#mask3_216_965)">
<path d="M31.7567 8.83643H13.7734V17.9638H31.7567V8.83643Z" fill="url(#paint3_linear_216_965)"/>
</g>
<path d="M50.7578 45.1794H61.3597V18.6217L71.155 45.1794H79.7109L89.4441 18.6841V45.1794H100.046V1H87.5844L75.4947 31.586L63.2815 1H50.7578V45.1794Z" fill="#A91D21"/>
<path d="M105.666 1V45.1794H116.267V28.5019H118.809L127.861 45.1794H139.826L129.783 27.6837C136.478 25.6699 139.454 20.4465 139.454 14.9085C139.454 7.23068 134.122 1 123.459 1H105.666ZM128.667 15.3491C128.667 18.8102 126.807 20.8871 122.839 20.8871H116.267V9.9366H122.839C126.807 9.9366 128.667 12.0765 128.667 15.3491Z" fill="#A91D21"/>
<path d="M143.896 27.3692C143.896 39.5784 151.77 45.62 161.876 45.62C171.919 45.62 180.351 39.5784 180.351 27.3692V1H169.749V27.4323C169.749 32.6557 167.084 35.6768 162.061 35.6768C157.039 35.6768 154.498 32.6557 154.498 27.4323V1H143.896V27.3692Z" fill="#A91D21"/>
<path d="M5.58509 58.3847C4.74965 58.3847 3.99463 58.2003 3.31864 57.8322C2.64335 57.4634 2.11227 56.9525 1.7261 56.2987C1.33992 55.6449 1.14648 54.9059 1.14648 54.0818C1.14648 53.2576 1.33992 52.5186 1.7261 51.8648C2.11227 51.211 2.64335 50.7001 3.31864 50.3313C3.99393 49.9625 4.75311 49.7788 5.59618 49.7788C6.30683 49.7788 6.94884 49.9055 7.52291 50.1596C8.09697 50.4129 8.57883 50.7775 8.96917 51.2532L7.75101 52.3948C7.19636 51.7452 6.50928 51.42 5.68978 51.42C5.18228 51.42 4.72954 51.5326 4.33158 51.7586C3.93361 51.9845 3.62301 52.2998 3.40045 52.7037C3.1779 53.1077 3.06697 53.5673 3.06697 54.0825C3.06697 54.5976 3.1779 55.0572 3.40045 55.4612C3.62301 55.8651 3.93361 56.1804 4.33158 56.4064C4.72954 56.6323 5.18228 56.7449 5.68978 56.7449C6.50928 56.7449 7.19636 56.4162 7.75101 55.7582L8.96917 56.8997C8.57883 57.3832 8.09489 57.752 7.51667 58.0054C6.93983 58.258 6.29574 58.3847 5.58509 58.3847Z" fill="black"/>
<path d="M22.7233 56.7442C23.2073 56.7442 23.6448 56.6316 24.0351 56.4057C24.4254 56.1797 24.7319 55.8644 24.9544 55.4605C25.177 55.0565 25.2879 54.5969 25.2879 54.0818C25.2879 53.5666 25.177 53.107 24.9544 52.703C24.7319 52.2991 24.4254 51.9838 24.0351 51.7579C23.6448 51.5319 23.2073 51.4193 22.7233 51.4193C22.2394 51.4193 21.8019 51.5319 21.4116 51.7579C21.0212 51.9838 20.7148 52.2991 20.4922 52.703C20.2697 53.107 20.1588 53.5666 20.1588 54.0818C20.1588 54.5969 20.2697 55.0565 20.4922 55.4605C20.7148 55.8644 21.0212 56.1797 21.4116 56.4057C21.8019 56.6309 22.2394 56.7442 22.7233 56.7442ZM22.7233 58.3847C21.8726 58.3847 21.1051 58.1982 20.4222 57.8259C19.7393 57.4536 19.2041 56.9405 18.8179 56.2867C18.4317 55.6329 18.2383 54.8974 18.2383 54.0818C18.2383 53.2654 18.4317 52.5306 18.8179 51.8768C19.2041 51.223 19.7393 50.7099 20.4222 50.3376C21.1051 49.9653 21.8726 49.7788 22.7233 49.7788C23.574 49.7788 24.3395 49.9653 25.0189 50.3376C25.6984 50.7099 26.2329 51.223 26.6232 51.8768C27.0136 52.5306 27.2091 53.2654 27.2091 54.0818C27.2091 54.8981 27.0136 55.6329 26.6232 56.2867C26.2329 56.9405 25.6984 57.4536 25.0189 57.8259C24.3395 58.1982 23.574 58.3847 22.7233 58.3847Z" fill="black"/>
<path d="M44.8406 49.9209V58.2425H43.2827L39.1956 53.19V58.2425H37.3223V49.9209H38.8912L42.9665 54.9734V49.9209H44.8406Z" fill="black"/>
<path d="M58.1618 58.3853C57.5136 58.3853 56.8875 58.296 56.2823 58.1179C55.677 57.9398 55.191 57.7076 54.8242 57.4226L55.4683 55.9721C55.8198 56.2339 56.2372 56.4436 56.7211 56.6019C57.2051 56.7603 57.689 56.8398 58.1736 56.8398C58.7123 56.8398 59.1103 56.7589 59.3682 56.5963C59.6261 56.4337 59.7544 56.2177 59.7544 55.9481C59.7544 55.7497 59.6781 55.5857 59.5263 55.4548C59.3738 55.3239 59.1789 55.219 58.9404 55.1395C58.7026 55.06 58.3802 54.9734 57.974 54.8777C57.3493 54.7271 56.8383 54.5765 56.4396 54.4258C56.0417 54.2752 55.6999 54.0338 55.4149 53.7009C55.13 53.3681 54.9872 52.924 54.9872 52.3694C54.9872 51.8859 55.1161 51.4481 55.3733 51.0554C55.6312 50.6634 56.0195 50.3523 56.5388 50.1222C57.0581 49.8921 57.6925 49.7773 58.4419 49.7773C58.9647 49.7773 59.4764 49.8407 59.9762 49.9674C60.4761 50.094 60.9129 50.2763 61.288 50.5142L60.7022 51.9767C59.9451 51.541 59.1873 51.3229 58.4302 51.3229C57.8991 51.3229 57.5067 51.4101 57.2529 51.5847C56.9992 51.7592 56.8723 51.9886 56.8723 52.2744C56.8723 52.5594 57.0186 52.7719 57.3111 52.9106C57.6037 53.0492 58.0509 53.1858 58.652 53.3209C59.2767 53.4715 59.7877 53.6221 60.1863 53.7727C60.5843 53.9233 60.9261 54.1612 61.211 54.4864C61.496 54.8115 61.6388 55.2514 61.6388 55.806C61.6388 56.2817 61.5078 56.7153 61.2464 57.108C60.985 57.5 60.5926 57.811 60.0692 58.0412C59.5478 58.2706 58.9113 58.3853 58.1618 58.3853Z" fill="black"/>
<path d="M73.2036 51.4903H70.5801V49.9209H77.724V51.4903H75.1005V58.2425H73.2036V51.4903Z" fill="black"/>
<path d="M92.6139 52.9408C92.6139 52.4735 92.4655 52.1146 92.1688 51.8648C91.872 51.6149 91.4387 51.4903 90.8688 51.4903H89.3227V54.3913H90.8688C91.4387 54.3913 91.872 54.2647 92.1688 54.0106C92.4655 53.7565 92.6139 53.4004 92.6139 52.9408ZM92.6485 58.2425L91.0678 55.9242H90.9742H89.3227V58.2425H87.4258V49.9209H90.9742C91.7001 49.9209 92.331 50.0441 92.8655 50.2897C93.4001 50.5353 93.8119 50.8844 94.101 51.3355C94.3901 51.7873 94.5343 52.3222 94.5343 52.9401C94.5343 53.5581 94.3881 54.0915 94.0955 54.5391C93.8029 54.9867 93.3869 55.3295 92.8482 55.5674L94.6869 58.2425H92.6485Z" fill="black"/>
<path d="M108.358 58.3853C107.187 58.3853 106.276 58.0567 105.624 57.3986C104.972 56.7406 104.646 55.8017 104.646 54.5814V49.9209H106.543V54.5096C106.543 55.9995 107.152 56.7448 108.37 56.7448C108.964 56.7448 109.417 56.5646 109.728 56.2036C110.04 55.8433 110.197 55.2781 110.197 54.5096V49.9209H112.071V54.5814C112.071 55.8017 111.745 56.7413 111.094 57.3986C110.442 58.0559 109.53 58.3853 108.358 58.3853Z" fill="black"/>
<path d="M125.92 61C125.716 61 125.517 60.9781 125.323 60.9345C125.127 60.8909 124.963 60.8296 124.831 60.7501L125.112 59.9534C125.361 60.0724 125.615 60.1315 125.873 60.1315C126.279 60.1315 126.482 60.0048 126.482 59.7507C126.482 59.5206 126.291 59.4059 125.908 59.4059H125.51L125.814 58.1454H126.786L126.623 58.8351C126.966 58.8745 127.222 58.9836 127.389 59.1624C127.557 59.3404 127.641 59.5607 127.641 59.8218C127.641 60.1864 127.485 60.4735 127.172 60.684C126.86 60.8951 126.442 61 125.92 61ZM126.552 58.3847C125.716 58.3847 124.961 58.2003 124.285 57.8322C123.61 57.4634 123.079 56.9525 122.693 56.2987C122.307 55.6449 122.113 54.9059 122.113 54.0818C122.113 53.2576 122.307 52.5186 122.693 51.8648C123.079 51.211 123.61 50.7001 124.285 50.3313C124.961 49.9625 125.72 49.7788 126.563 49.7788C127.274 49.7788 127.916 49.9055 128.49 50.1596C129.064 50.4129 129.546 50.7775 129.936 51.2532L128.718 52.3948C128.163 51.7452 127.476 51.42 126.657 51.42C126.149 51.42 125.696 51.5326 125.298 51.7586C124.9 51.9845 124.59 52.2998 124.367 52.7037C124.145 53.1077 124.034 53.5673 124.034 54.0825C124.034 54.5976 124.145 55.0572 124.367 55.4612C124.59 55.8651 124.9 56.1804 125.298 56.4064C125.696 56.6323 126.149 56.7449 126.657 56.7449C127.476 56.7449 128.163 56.4162 128.718 55.7582L129.936 56.8997C129.546 57.3832 129.062 57.752 128.483 58.0054C127.907 58.258 127.263 58.3847 126.552 58.3847Z" fill="black"/>
<path d="M144.569 49.2783C144.358 49.2783 144.172 49.2368 144.013 49.1538C143.852 49.0707 143.675 48.9574 143.479 48.8152C143.355 48.7202 143.251 48.6491 143.169 48.6013C143.087 48.5534 143.007 48.5302 142.929 48.5302C142.765 48.5302 142.632 48.5879 142.531 48.7026C142.43 48.8173 142.375 48.982 142.367 49.196H141.442C141.458 48.6653 141.589 48.2431 141.835 47.9299C142.081 47.6167 142.407 47.4604 142.812 47.4604C143.016 47.4604 143.197 47.502 143.357 47.585C143.517 47.6681 143.698 47.7849 143.901 47.9355C144.026 48.0305 144.129 48.1016 144.212 48.1495C144.293 48.1973 144.374 48.2205 144.451 48.2205C144.607 48.2205 144.738 48.1628 144.844 48.0481C144.949 47.9334 145.006 47.7764 145.014 47.5787H145.939C145.923 48.0939 145.792 48.5063 145.546 48.8152C145.301 49.1235 144.975 49.2783 144.569 49.2783ZM143.69 56.7441C144.174 56.7441 144.612 56.6315 145.002 56.4056C145.392 56.1796 145.699 55.8643 145.921 55.4604C146.144 55.0564 146.255 54.5968 146.255 54.0817C146.255 53.5665 146.144 53.1069 145.921 52.7029C145.699 52.299 145.392 51.9837 145.002 51.7578C144.612 51.5318 144.174 51.4192 143.69 51.4192C143.206 51.4192 142.769 51.5318 142.378 51.7578C141.988 51.9837 141.682 52.299 141.459 52.7029C141.236 53.1069 141.126 53.5665 141.126 54.0817C141.126 54.5968 141.236 55.0564 141.459 55.4604C141.682 55.8643 141.988 56.1796 142.378 56.4056C142.769 56.6308 143.206 56.7441 143.69 56.7441ZM143.69 58.3846C142.839 58.3846 142.072 58.1981 141.389 57.8258C140.706 57.4535 140.171 56.9404 139.785 56.2866C139.399 55.6328 139.205 54.8973 139.205 54.0817C139.205 53.2653 139.399 52.5305 139.785 51.8767C140.171 51.2229 140.706 50.7098 141.389 50.3375C142.072 49.9652 142.839 49.7787 143.69 49.7787C144.541 49.7787 145.306 49.9652 145.986 50.3375C146.665 50.7098 147.2 51.2229 147.59 51.8767C147.98 52.5305 148.176 53.2653 148.176 54.0817C148.176 54.8981 147.98 55.6328 147.59 56.2866C147.2 56.9404 146.665 57.4535 145.986 57.8258C145.306 58.1981 144.542 58.3846 143.69 58.3846Z" fill="black"/>
<path d="M164.636 56.6969V58.2425H158.289V49.9209H164.484V51.4664H160.174V53.2737H163.98V54.7714H160.174V56.6969H164.636Z" fill="black"/>
<path d="M177.523 58.3853C176.875 58.3853 176.249 58.296 175.644 58.1179C175.038 57.9398 174.552 57.7076 174.186 57.4226L174.83 55.9721C175.181 56.2339 175.599 56.4436 176.082 56.6019C176.566 56.7603 177.05 56.8398 177.535 56.8398C178.074 56.8398 178.472 56.7589 178.73 56.5963C178.987 56.4337 179.116 56.2177 179.116 55.9481C179.116 55.7497 179.039 55.5857 178.888 55.4548C178.735 55.3239 178.54 55.219 178.302 55.1395C178.064 55.06 177.742 54.9734 177.335 54.8777C176.711 54.7271 176.2 54.5765 175.801 54.4258C175.403 54.2752 175.061 54.0338 174.776 53.7009C174.491 53.3681 174.348 52.924 174.348 52.3694C174.348 51.8859 174.477 51.4481 174.735 51.0554C174.993 50.6634 175.381 50.3523 175.9 50.1222C176.419 49.8921 177.054 49.7773 177.803 49.7773C178.326 49.7773 178.838 49.8407 179.338 49.9674C179.837 50.094 180.274 50.2763 180.649 50.5142L180.063 51.9767C179.306 51.541 178.549 51.3229 177.791 51.3229C177.26 51.3229 176.868 51.4101 176.614 51.5847C176.36 51.7592 176.234 51.9886 176.234 52.2744C176.234 52.5594 176.38 52.7719 176.672 52.9106C176.965 53.0492 177.412 53.1858 178.013 53.3209C178.638 53.4715 179.149 53.6221 179.548 53.7727C179.946 53.9233 180.287 54.1612 180.572 54.4864C180.857 54.8115 181 55.2514 181 55.806C181 56.2817 180.869 56.7153 180.608 57.108C180.346 57.5 179.954 57.811 179.43 58.0412C178.909 58.2706 178.273 58.3853 177.523 58.3853Z" fill="black"/>
<defs>
<linearGradient id="paint0_linear_216_965" x1="34.5294" y1="16.6307" x2="37.0073" y2="37.2148" gradientUnits="userSpaceOnUse">
<stop stop-color="#404041"/>
<stop offset="1" stop-color="#D1D3D4"/>
</linearGradient>
<linearGradient id="paint1_linear_216_965" x1="10.994" y1="16.6307" x2="8.516" y2="37.2148" gradientUnits="userSpaceOnUse">
<stop stop-color="#404041"/>
<stop offset="1" stop-color="#D1D3D4"/>
</linearGradient>
<linearGradient id="paint2_linear_216_965" x1="22.7619" y1="28.7338" x2="22.7626" y2="37.3468" gradientUnits="userSpaceOnUse">
<stop stop-color="white"/>
<stop offset="1" stop-color="#7E7C7D"/>
</linearGradient>
<linearGradient id="paint3_linear_216_965" x1="22.7651" y1="13.4003" x2="18.2339" y2="-2.2682" gradientUnits="userSpaceOnUse">
<stop stop-color="#A91D21"/>
<stop offset="1" stop-color="white"/>
</linearGradient>
</defs>
</svg>
